PathFileType	4	(X/Y/Z)	C:/Users/opensim2020/Desktop/walking_exp_matlab/subject02_walking06_straight_02.trc	
DataRate	CameraRate	NumFrames	NumMarkers	Units	OrigDataRate	OrigDataStartFrame	OrigNumFrames	
100.00	100.00	4	41	mm	100.00	1500	183	
Frame#	Time	LFHD			RFHD			LBHD			RBHD			C7			T10			CLAV			STRN			RBAK			LSHO			LUPA			LELB			LFRM			LWRA			LWRB			LFIN			RSHO			RUPA			RELB			RFRM			RWRA			RWRB			RFIN			LASI			RASI			LPSI			RPSI			LTHI			LKNE			LTIB			LANK			LHEE			LTOE			RTHI			RKNE			RTIB			RANK			RHEE			RTOE			*39			*40			
		X1	Y1	Z1	X2	Y2	Z2	X3	Y3	Z3	X4	Y4	Z4	X5	Y5	Z5	X6	Y6	Z6	X7	Y7	Z7	X8	Y8	Z8	X9	Y9	Z9	X10	Y10	Z10	X11	Y11	Z11	X12	Y12	Z12	X13	Y13	Z13	X14	Y14	Z14	X15	Y15	Z15	X16	Y16	Z16	X17	Y17	Z17	X18	Y18	Z18	X19	Y19	Z19	X20	Y20	Z20	X21	Y21	Z21	X22	Y22	Z22	X23	Y23	Z23	X24	Y24	Z24	X25	Y25	Z25	X26	Y26	Z26	X27	Y27	Z27	X28	Y28	Z28	X29	Y29	Z29	X30	Y30	Z30	X31	Y31	Z31	X32	Y32	Z32	X33	Y33	Z33	X34	Y34	Z34	X35	Y35	Z35	X36	Y36	Z36	X37	Y37	Z37	X38	Y38	Z38	X39	Y39	Z39	X40	Y40	Z40	X41	Y41	Z41	

69	0.680	-939.91010	70.73156	1741.41040	-1082.36084	77.47996	1722.07117	-923.38483	196.16760	1659.46643	-1064.31079	214.89859	1637.57446	-990.47736	248.48071	1522.01062	-998.64557	304.70990	1247.56616	-990.82092	110.07610	1451.19629	-1001.89142	62.08304	1278.03589	-1049.18469	315.49899	1349.29102	-818.73102	159.75870	1498.38660	-726.46527	107.97575	1312.60364	-707.03845	48.57614	1182.32422	-716.93152	-39.04910	1080.64648	-780.15094	-145.00070	1016.48285	-737.72693	-118.88387	989.60504	-745.46844	-174.84831	955.92944	-1181.63000	188.77116	1486.28040	-1262.86877	249.02289	1305.00928	-1289.38782	250.66209	1158.57288	-1308.61816	227.26036	1039.05688	-1288.17664	184.18724	910.96222	-1321.17163	230.21904	909.16803	-1321.51404	195.65778	844.83679	-868.51074	86.16838	977.35663	-1124.52405	77.66236	971.72345	-956.48773	291.21906	1030.60864	-1070.59863	293.16550	1030.01550	-837.35443	187.91785	669.12189	-874.91162	253.11839	474.60910	-881.65961	337.86331	297.77744	-929.97565	366.37375	77.46817	-982.46863	404.88834	53.33545	-918.70856	212.43234	34.16150	-1217.49512	92.07626	678.45618	-1189.39819	23.69024	481.15942	-1199.53296	36.54814	294.90884	-1173.46167	18.02391	101.44287	-1113.31909	30.39023	41.59486	-1212.85669	-133.87975	68.84383	-1024.15491	181.05711	1800.32739	-3357.32202	2845.76172	1034.00293 
70	0.690	-941.26416	60.57050	1740.25281	-1083.93726	67.08537	1720.38000	-924.63513	185.93367	1657.90833	-1065.64063	204.64059	1636.03235	-991.54498	238.01436	1520.65076	-999.77875	294.76364	1246.30408	-991.89252	99.76752	1449.62415	-1002.66864	52.07927	1276.33118	-1050.04309	305.42215	1348.03162	-819.76593	149.33771	1497.23535	-726.95728	97.06724	1311.96375	-706.94727	36.77689	1182.21008	-717.48969	-52.84432	1081.54932	-780.89648	-159.11197	1019.52777	-738.77203	-133.78253	992.13696	-746.68567	-190.04407	959.36310	-1182.60815	178.49455	1484.50049	-1263.44885	239.78671	1303.42896	-1289.55737	242.72913	1157.11304	-1309.14502	220.64804	1037.49121	-1288.64990	178.90189	908.77625	-1321.43762	225.11998	907.52197	-1321.96912	191.26907	842.78113	-869.40259	77.04806	975.99548	-1125.27319	67.55474	969.99402	-957.89758	281.77527	1029.49988	-1072.02222	283.14658	1028.56201	-837.55396	182.35368	668.44269	-875.18689	248.71654	474.44388	-881.92914	335.33774	298.45059	-929.92865	366.13620	78.27557	-982.29938	405.04877	54.52156	-918.26965	212.16154	34.15434	-1217.38525	82.85701	675.99420	-1187.90845	12.66314	479.62735	-1200.25476	17.15309	293.27457	-1176.07227	-9.68953	100.48403	-1116.80615	1.49346	39.55800	-1211.63220	-164.31020	74.38148	-1025.60669	170.78397	1798.65320	-3360.23120	2845.13232	1033.90491 
71	0.700	-942.89294	50.02799	1738.56494	-1085.37378	56.74109	1718.79480	-926.12341	175.55084	1656.27356	-1066.93311	194.28452	1634.45154	-992.66864	227.53296	1519.14441	-1000.99530	284.71671	1245.03735	-992.99286	89.33954	1448.02991	-1003.65173	41.97371	1274.62085	-1050.35645	294.98315	1346.61536	-820.89905	138.78525	1496.00476	-727.40265	86.50849	1311.35608	-706.88324	25.29502	1181.75281	-717.85510	-65.70794	1082.60986	-781.72784	-172.96805	1022.28937	-739.78717	-147.80400	994.23157	-747.71936	-204.38548	962.14563	-1183.74792	168.10667	1482.58020	-1264.17310	230.37874	1301.79968	-1289.82800	234.59929	1155.66089	-1309.40125	213.79883	1035.75305	-1289.29468	173.23251	906.68085	-1321.63623	219.80780	905.84406	-1322.46619	186.58006	840.76324	-870.24255	67.95304	974.48145	-1126.01636	57.23207	968.08868	-959.48328	272.22873	1028.37891	-1073.65344	272.97043	1027.03784	-837.79047	176.55569	667.89563	-875.52527	244.01321	474.23422	-882.12500	332.70959	299.33954	-929.75903	365.75610	79.15891	-982.23480	404.85834	55.73764	-918.22363	212.37839	34.17208	-1216.83875	74.06668	673.37927	-1186.60083	2.00462	478.18622	-1200.84790	-1.54151	292.03748	-1178.24463	-36.62772	100.06651	-1119.41821	-26.26287	38.22373	-1210.02661	-193.23164	80.17105	-1027.23120	160.50261	1797.39905	-3360.17847	2845.05908	1033.91919 
72	0.710	-944.38965	39.70574	1737.15698	-1086.87964	46.53437	1717.37415	-927.60358	165.25832	1655.02209	-1068.31250	183.95276	1632.85571	-993.93744	217.06522	1517.81189	-1002.30823	274.57520	1243.77197	-994.16211	78.85007	1446.42004	-1004.75360	31.82563	1272.93066	-1051.47595	284.67743	1345.24084	-822.07697	128.17163	1494.64465	-728.05347	75.78825	1310.35913	-707.14862	13.88842	1180.92065	-718.39160	-78.11040	1082.94812	-782.29718	-186.54143	1024.78931	-740.96191	-161.56201	995.90790	-748.93921	-218.76906	964.50104	-1185.03235	157.68898	1480.78088	-1264.85046	220.81052	1300.07263	-1290.29211	226.23280	1154.17017	-1309.99536	206.79129	1034.13660	-1289.98792	167.51042	904.63507	-1322.32703	213.94548	904.30725	-1323.08875	181.57196	838.77972	-871.08728	58.61111	972.93365	-1126.80969	46.68674	966.15283	-961.24561	262.62518	1027.29285	-1075.48950	262.63278	1025.53943	-838.16504	170.51260	667.31067	-875.78223	239.14748	474.09836	-882.30664	329.88724	300.25488	-929.50470	365.34631	80.20761	-982.15198	404.66058	57.27219	-918.03662	212.32701	34.13698	-1216.56274	65.39722	670.69391	-1185.42676	-8.46866	476.64264	-1201.31628	-19.50717	291.09766	-1180.14453	-62.61348	100.29656	-1122.34680	-53.19728	37.82211	-1207.87280	-220.89311	85.87864	-1028.90112	150.16478	1795.78784	-3360.31909	2845.07788	1033.97009 
